<?xml version="1.0" encoding="UTF-8"?>
<svg xmlns="http://www.w3.org/2000/svg" xmlns:xlink="http://www.w3.org/1999/xlink" width="2488.94" height="3303.64" viewBox="0 0 2488.94 3303.64">
<defs>
<clipPath id="clip-0">
<path clip-rule="evenodd" d="M 1617.019531 2855.46875 C 1592.75 2855.46875 1573.050781 2835.800781 1573.050781 2811.5 L 1573.050781 1496.871094 C 1573.050781 1439.011719 1660.988281 1439.011719 1660.988281 1496.871094 L 1660.988281 2811.5 C 1660.988281 2835.800781 1641.320312 2855.46875 1617.019531 2855.46875 Z M 1333.71875 2855.46875 C 1309.449219 2855.46875 1289.78125 2835.800781 1289.78125 2811.5 L 1289.78125 1496.871094 C 1289.78125 1439.011719 1377.691406 1439 1377.691406 1496.871094 L 1377.691406 2811.5 C 1377.691406 2835.800781 1358.019531 2855.46875 1333.71875 2855.46875 Z M 1050.441406 2855.46875 C 1026.160156 2855.46875 1006.480469 2835.800781 1006.480469 2811.5 L 1006.480469 1496.871094 C 1006.480469 1439 1094.410156 1439.011719 1094.410156 1496.871094 L 1094.410156 2811.5 C 1094.410156 2835.800781 1074.75 2855.46875 1050.441406 2855.46875 Z M 767.152344 2855.46875 C 742.871094 2855.46875 723.195312 2835.800781 723.195312 2811.5 L 723.195312 1496.871094 C 723.195312 1439 811.121094 1439.011719 811.121094 1496.871094 L 811.121094 2811.5 C 811.160156 2835.800781 791.449219 2855.46875 767.152344 2855.46875 Z M 104.019531 1154.53125 L 104.019531 1098.570312 L 159.964844 1098.570312 L 159.964844 1154.53125 Z M 203.933594 1242.449219 C -12.21875 1242.449219 16.070312 1270.75 16.070312 1054.621094 C 16.070312 1030.320312 35.753906 1010.648438 60.035156 1010.648438 C 276.265625 1010.648438 247.808594 982.359375 247.886719 1198.480469 C 247.898438 1222.789062 228.199219 1242.449219 203.933594 1242.449219 Z M 103.625 774.800781 L 152.097656 746.839844 L 180.070312 795.300781 L 131.597656 823.269531 Z M 115.535156 927.269531 C 100.339844 927.269531 85.582031 919.398438 77.410156 905.28125 C -30.644531 718.429688 -40.953125 756.488281 146.160156 648.699219 C 167.1875 636.601562 194.054688 643.789062 206.21875 664.78125 C 314.523438 852.109375 324.359375 813.28125 137.46875 921.378906 C 130.558594 925.378906 122.996094 927.269531 115.535156 927.269531 Z M 718.300781 873.730469 L 766.757812 845.75 L 794.730469 894.210938 L 746.269531 922.191406 Z M 730.15625 1026.21875 C 714.503906 1026.21875 699.9375 1017.828125 692.074219 1004.210938 C 584.042969 817.148438 573.65625 855.621094 760.824219 747.628906 C 781.78125 735.539062 808.757812 742.691406 820.878906 763.710938 L 892.820312 888.320312 C 904.96875 909.328125 897.703125 936.21875 876.691406 948.371094 C 846.671875 965.730469 752.179688 1026.21875 730.15625 1026.21875 Z M 441.765625 906.148438 L 441.765625 850.210938 L 497.722656 850.210938 L 497.722656 906.148438 Z M 541.691406 994.089844 C 325.539062 994.089844 353.839844 1022.359375 353.839844 806.21875 C 353.839844 781.941406 373.527344 762.261719 397.808594 762.261719 C 613.945312 762.238281 585.660156 733.960938 585.660156 950.109375 C 585.660156 974.398438 565.972656 994.089844 541.691406 994.089844 Z M 1871.511719 602.25 C 1855.429688 602.25 953.636719 357.808594 855.957031 331.648438 C 800.074219 316.679688 822.757812 231.660156 878.714844 246.710938 L 1882.878906 515.78125 C 1932.308594 529.03125 1922.328125 602.25 1871.511719 602.25 Z M 1306.71875 155.960938 C 1310.53125 141.808594 1314.128906 113.621094 1338.5 120.109375 L 1548.019531 176.261719 C 1572.421875 182.820312 1561.128906 209.921875 1557.578125 223.171875 Z M 466.058594 341.640625 L 731.207031 92.75 L 2080.128906 454.199219 L 2191.441406 803.960938 Z M 394.15625 1132.261719 L 540.929688 3007.230469 C 550.214844 3126.109375 638.453125 3215.730469 746.152344 3215.730469 L 1928.871094 3215.730469 C 2034.109375 3215.730469 2120.238281 3128.238281 2129.121094 3012.28125 L 2273.371094 1132.289062 L 394.15625 1132.28125 Z M 2330.960938 1045.5 L 224.574219 481.070312 C 164.125 464.949219 174.671875 373.710938 238.902344 373.710938 C 259.878906 373.710938 2076.769531 864.261719 2360.488281 940.269531 C 2428.648438 958.539062 2403.328125 1064.429688 2330.960938 1045.5 Z M 1928.871094 3303.640625 C 2080.550781 3303.640625 2204.339844 3181.238281 2216.761719 3019 L 2361.328125 1134.78125 C 2463.03125 1123.898438 2521.519531 1011.679688 2469.699219 921.859375 C 2432.140625 856.78125 2367.550781 851.148438 2292.328125 830.988281 L 2156.640625 404.648438 C 2152.121094 390.351562 2140.621094 379.398438 2126.121094 375.511719 L 1642.519531 245.929688 L 1648.070312 225.21875 C 1663.671875 166.988281 1628.96875 106.949219 1570.769531 91.351562 L 1361.25 35.179688 C 1302.78125 19.539062 1242.898438 54.269531 1227.328125 112.488281 L 1221.789062 133.199219 L 730.316406 1.511719 C 715.605469 -2.449219 699.964844 1.511719 688.867188 11.890625 L 366.09375 314.859375 C 333.378906 306.089844 269.238281 285.761719 238.902344 285.761719 C 72.171875 285.761719 43.136719 523.5 201.855469 566.011719 L 1986.941406 1044.320312 L 346.605469 1044.308594 C 321.140625 1044.308594 300.8125 1066.320312 302.808594 1091.699219 L 453.28125 3014.089844 C 466.191406 3179.140625 592.09375 3303.640625 746.152344 3303.640625 Z M 1900.289062 2855.46875 C 1876 2855.46875 1856.320312 2835.800781 1856.320312 2811.5 L 1856.320312 1496.871094 C 1856.320312 1439.011719 1944.261719 1439.011719 1944.261719 1496.871094 L 1944.261719 2811.5 C 1944.261719 2835.800781 1924.558594 2855.46875 1900.289062 2855.46875 "/>
</clipPath>
<linearGradient id="linear-pattern-0" gradientUnits="userSpaceOnUse" x1="-0.0164727" y1="0" x2="1.013078" y2="0" gradientTransform="matrix(2417.5, 0, 0, 2417.5, 39.8228, 1651.82)">
<stop offset="0" stop-color="rgb(11.372375%, 37.254333%, 37.646484%)" stop-opacity="1"/>
<stop offset="0.015625" stop-color="rgb(11.372375%, 37.254333%, 37.646484%)" stop-opacity="1"/>
<stop offset="0.0234375" stop-color="rgb(11.328125%, 37.159729%, 37.550354%)" stop-opacity="1"/>
<stop offset="0.03125" stop-color="rgb(11.239624%, 36.965942%, 37.353516%)" stop-opacity="1"/>
<stop offset="0.0390625" stop-color="rgb(11.148071%, 36.766052%, 37.150574%)" stop-opacity="1"/>
<stop offset="0.046875" stop-color="rgb(11.056519%, 36.567688%, 36.949158%)" stop-opacity="1"/>
<stop offset="0.0546875" stop-color="rgb(10.964966%, 36.369324%, 36.747742%)" stop-opacity="1"/>
<stop offset="0.0625" stop-color="rgb(10.873413%, 36.170959%, 36.5448%)" stop-opacity="1"/>
<stop offset="0.0703125" stop-color="rgb(10.78186%, 35.971069%, 36.343384%)" stop-opacity="1"/>
<stop offset="0.078125" stop-color="rgb(10.690308%, 35.772705%, 36.141968%)" stop-opacity="1"/>
<stop offset="0.0859375" stop-color="rgb(10.598755%, 35.574341%, 35.940552%)" stop-opacity="1"/>
<stop offset="0.09375" stop-color="rgb(10.507202%, 35.375977%, 35.73761%)" stop-opacity="1"/>
<stop offset="0.101562" stop-color="rgb(10.415649%, 35.177612%, 35.536194%)" stop-opacity="1"/>
<stop offset="0.109375" stop-color="rgb(10.324097%, 34.977722%, 35.334778%)" stop-opacity="1"/>
<stop offset="0.117187" stop-color="rgb(10.232544%, 34.779358%, 35.131836%)" stop-opacity="1"/>
<stop offset="0.125" stop-color="rgb(10.140991%, 34.580994%, 34.93042%)" stop-opacity="1"/>
<stop offset="0.132812" stop-color="rgb(10.049438%, 34.382629%, 34.729004%)" stop-opacity="1"/>
<stop offset="0.140625" stop-color="rgb(9.957886%, 34.182739%, 34.526062%)" stop-opacity="1"/>
<stop offset="0.148438" stop-color="rgb(9.866333%, 33.984375%, 34.324646%)" stop-opacity="1"/>
<stop offset="0.15625" stop-color="rgb(9.77478%, 33.786011%, 34.12323%)" stop-opacity="1"/>
<stop offset="0.164062" stop-color="rgb(9.683228%, 33.587646%, 33.921814%)" stop-opacity="1"/>
<stop offset="0.171875" stop-color="rgb(9.591675%, 33.387756%, 33.718872%)" stop-opacity="1"/>
<stop offset="0.179688" stop-color="rgb(9.501648%, 33.189392%, 33.517456%)" stop-opacity="1"/>
<stop offset="0.1875" stop-color="rgb(9.410095%, 32.991028%, 33.31604%)" stop-opacity="1"/>
<stop offset="0.195312" stop-color="rgb(9.318542%, 32.792664%, 33.113098%)" stop-opacity="1"/>
<stop offset="0.203125" stop-color="rgb(9.22699%, 32.594299%, 32.911682%)" stop-opacity="1"/>
<stop offset="0.210938" stop-color="rgb(9.135437%, 32.394409%, 32.710266%)" stop-opacity="1"/>
<stop offset="0.21875" stop-color="rgb(9.043884%, 32.196045%, 32.507324%)" stop-opacity="1"/>
<stop offset="0.226562" stop-color="rgb(8.952332%, 31.997681%, 32.305908%)" stop-opacity="1"/>
<stop offset="0.234375" stop-color="rgb(8.860779%, 31.799316%, 32.104492%)" stop-opacity="1"/>
<stop offset="0.242187" stop-color="rgb(8.769226%, 31.599426%, 31.903076%)" stop-opacity="1"/>
<stop offset="0.25" stop-color="rgb(8.677673%, 31.401062%, 31.700134%)" stop-opacity="1"/>
<stop offset="0.257812" stop-color="rgb(8.586121%, 31.202698%, 31.498718%)" stop-opacity="1"/>
<stop offset="0.265625" stop-color="rgb(8.494568%, 31.004333%, 31.297302%)" stop-opacity="1"/>
<stop offset="0.273437" stop-color="rgb(8.403015%, 30.804443%, 31.09436%)" stop-opacity="1"/>
<stop offset="0.28125" stop-color="rgb(8.311462%, 30.606079%, 30.892944%)" stop-opacity="1"/>
<stop offset="0.289062" stop-color="rgb(8.21991%, 30.407715%, 30.691528%)" stop-opacity="1"/>
<stop offset="0.296875" stop-color="rgb(8.128357%, 30.209351%, 30.488586%)" stop-opacity="1"/>
<stop offset="0.304688" stop-color="rgb(8.036804%, 30.010986%, 30.28717%)" stop-opacity="1"/>
<stop offset="0.3125" stop-color="rgb(7.945251%, 29.811096%, 30.085754%)" stop-opacity="1"/>
<stop offset="0.320312" stop-color="rgb(7.853699%, 29.612732%, 29.884338%)" stop-opacity="1"/>
<stop offset="0.328125" stop-color="rgb(7.762146%, 29.414368%, 29.681396%)" stop-opacity="1"/>
<stop offset="0.335938" stop-color="rgb(7.672119%, 29.216003%, 29.47998%)" stop-opacity="1"/>
<stop offset="0.34375" stop-color="rgb(7.580566%, 29.016113%, 29.278564%)" stop-opacity="1"/>
<stop offset="0.351562" stop-color="rgb(7.489014%, 28.817749%, 29.075623%)" stop-opacity="1"/>
<stop offset="0.359375" stop-color="rgb(7.397461%, 28.619385%, 28.874207%)" stop-opacity="1"/>
<stop offset="0.367187" stop-color="rgb(7.305908%, 28.421021%, 28.672791%)" stop-opacity="1"/>
<stop offset="0.375" stop-color="rgb(7.214355%, 28.22113%, 28.469849%)" stop-opacity="1"/>
<stop offset="0.382812" stop-color="rgb(7.122803%, 28.022766%, 28.268433%)" stop-opacity="1"/>
<stop offset="0.390625" stop-color="rgb(7.03125%, 27.824402%, 28.067017%)" stop-opacity="1"/>
<stop offset="0.398438" stop-color="rgb(6.939697%, 27.626038%, 27.865601%)" stop-opacity="1"/>
<stop offset="0.40625" stop-color="rgb(6.848145%, 27.427673%, 27.662659%)" stop-opacity="1"/>
<stop offset="0.414062" stop-color="rgb(6.756592%, 27.227783%, 27.461243%)" stop-opacity="1"/>
<stop offset="0.421875" stop-color="rgb(6.665039%, 27.029419%, 27.259827%)" stop-opacity="1"/>
<stop offset="0.429688" stop-color="rgb(6.573486%, 26.831055%, 27.056885%)" stop-opacity="1"/>
<stop offset="0.4375" stop-color="rgb(6.481934%, 26.63269%, 26.855469%)" stop-opacity="1"/>
<stop offset="0.445313" stop-color="rgb(6.390381%, 26.4328%, 26.654053%)" stop-opacity="1"/>
<stop offset="0.453125" stop-color="rgb(6.298828%, 26.234436%, 26.451111%)" stop-opacity="1"/>
<stop offset="0.460937" stop-color="rgb(6.207275%, 26.036072%, 26.249695%)" stop-opacity="1"/>
<stop offset="0.46875" stop-color="rgb(6.115723%, 25.837708%, 26.048279%)" stop-opacity="1"/>
<stop offset="0.476562" stop-color="rgb(6.02417%, 25.637817%, 25.846863%)" stop-opacity="1"/>
<stop offset="0.484375" stop-color="rgb(5.934143%, 25.439453%, 25.643921%)" stop-opacity="1"/>
<stop offset="0.492188" stop-color="rgb(5.84259%, 25.241089%, 25.442505%)" stop-opacity="1"/>
<stop offset="0.5" stop-color="rgb(5.751038%, 25.042725%, 25.241089%)" stop-opacity="1"/>
<stop offset="0.507812" stop-color="rgb(5.659485%, 24.842834%, 25.038147%)" stop-opacity="1"/>
<stop offset="0.515625" stop-color="rgb(5.567932%, 24.64447%, 24.836731%)" stop-opacity="1"/>
<stop offset="0.523438" stop-color="rgb(5.476379%, 24.446106%, 24.635315%)" stop-opacity="1"/>
<stop offset="0.53125" stop-color="rgb(5.384827%, 24.247742%, 24.432373%)" stop-opacity="1"/>
<stop offset="0.539062" stop-color="rgb(5.293274%, 24.049377%, 24.230957%)" stop-opacity="1"/>
<stop offset="0.546875" stop-color="rgb(5.201721%, 23.849487%, 24.029541%)" stop-opacity="1"/>
<stop offset="0.554688" stop-color="rgb(5.110168%, 23.651123%, 23.828125%)" stop-opacity="1"/>
<stop offset="0.5625" stop-color="rgb(5.018616%, 23.452759%, 23.625183%)" stop-opacity="1"/>
<stop offset="0.570312" stop-color="rgb(4.927063%, 23.254395%, 23.423767%)" stop-opacity="1"/>
<stop offset="0.578125" stop-color="rgb(4.83551%, 23.054504%, 23.222351%)" stop-opacity="1"/>
<stop offset="0.585938" stop-color="rgb(4.743958%, 22.85614%, 23.019409%)" stop-opacity="1"/>
<stop offset="0.59375" stop-color="rgb(4.652405%, 22.657776%, 22.817993%)" stop-opacity="1"/>
<stop offset="0.601562" stop-color="rgb(4.560852%, 22.459412%, 22.616577%)" stop-opacity="1"/>
<stop offset="0.609375" stop-color="rgb(4.469299%, 22.259521%, 22.413635%)" stop-opacity="1"/>
<stop offset="0.617188" stop-color="rgb(4.377747%, 22.061157%, 22.212219%)" stop-opacity="1"/>
<stop offset="0.625" stop-color="rgb(4.286194%, 21.862793%, 22.010803%)" stop-opacity="1"/>
<stop offset="0.632812" stop-color="rgb(4.196167%, 21.664429%, 21.809387%)" stop-opacity="1"/>
<stop offset="0.640625" stop-color="rgb(4.104614%, 21.466064%, 21.606445%)" stop-opacity="1"/>
<stop offset="0.648438" stop-color="rgb(4.013062%, 21.266174%, 21.405029%)" stop-opacity="1"/>
<stop offset="0.65625" stop-color="rgb(3.921509%, 21.06781%, 21.203613%)" stop-opacity="1"/>
<stop offset="0.664062" stop-color="rgb(3.829956%, 20.869446%, 21.000671%)" stop-opacity="1"/>
<stop offset="0.671875" stop-color="rgb(3.738403%, 20.671082%, 20.799255%)" stop-opacity="1"/>
<stop offset="0.679688" stop-color="rgb(3.646851%, 20.471191%, 20.597839%)" stop-opacity="1"/>
<stop offset="0.6875" stop-color="rgb(3.555298%, 20.272827%, 20.394897%)" stop-opacity="1"/>
<stop offset="0.695312" stop-color="rgb(3.463745%, 20.074463%, 20.193481%)" stop-opacity="1"/>
<stop offset="0.703125" stop-color="rgb(3.372192%, 19.876099%, 19.992065%)" stop-opacity="1"/>
<stop offset="0.710938" stop-color="rgb(3.28064%, 19.676208%, 19.790649%)" stop-opacity="1"/>
<stop offset="0.71875" stop-color="rgb(3.189087%, 19.477844%, 19.587708%)" stop-opacity="1"/>
<stop offset="0.726562" stop-color="rgb(3.097534%, 19.27948%, 19.386292%)" stop-opacity="1"/>
<stop offset="0.734375" stop-color="rgb(3.005981%, 19.081116%, 19.184875%)" stop-opacity="1"/>
<stop offset="0.742188" stop-color="rgb(2.914429%, 18.882751%, 18.981934%)" stop-opacity="1"/>
<stop offset="0.75" stop-color="rgb(2.822876%, 18.682861%, 18.780518%)" stop-opacity="1"/>
<stop offset="0.757812" stop-color="rgb(2.731323%, 18.484497%, 18.579102%)" stop-opacity="1"/>
<stop offset="0.765625" stop-color="rgb(2.639771%, 18.286133%, 18.37616%)" stop-opacity="1"/>
<stop offset="0.773438" stop-color="rgb(2.548218%, 18.087769%, 18.174744%)" stop-opacity="1"/>
<stop offset="0.78125" stop-color="rgb(2.458191%, 17.887878%, 17.973328%)" stop-opacity="1"/>
<stop offset="0.789062" stop-color="rgb(2.366638%, 17.689514%, 17.771912%)" stop-opacity="1"/>
<stop offset="0.796875" stop-color="rgb(2.275085%, 17.49115%, 17.56897%)" stop-opacity="1"/>
<stop offset="0.804688" stop-color="rgb(2.183533%, 17.292786%, 17.367554%)" stop-opacity="1"/>
<stop offset="0.8125" stop-color="rgb(2.09198%, 17.092896%, 17.166138%)" stop-opacity="1"/>
<stop offset="0.820313" stop-color="rgb(2.000427%, 16.894531%, 16.963196%)" stop-opacity="1"/>
<stop offset="0.828125" stop-color="rgb(1.908875%, 16.696167%, 16.76178%)" stop-opacity="1"/>
<stop offset="0.835938" stop-color="rgb(1.817322%, 16.497803%, 16.560364%)" stop-opacity="1"/>
<stop offset="0.84375" stop-color="rgb(1.725769%, 16.299438%, 16.357422%)" stop-opacity="1"/>
<stop offset="0.851562" stop-color="rgb(1.634216%, 16.099548%, 16.156006%)" stop-opacity="1"/>
<stop offset="0.859375" stop-color="rgb(1.542664%, 15.901184%, 15.95459%)" stop-opacity="1"/>
<stop offset="0.867188" stop-color="rgb(1.451111%, 15.70282%, 15.753174%)" stop-opacity="1"/>
<stop offset="0.875" stop-color="rgb(1.359558%, 15.504456%, 15.550232%)" stop-opacity="1"/>
<stop offset="0.882812" stop-color="rgb(1.268005%, 15.304565%, 15.348816%)" stop-opacity="1"/>
<stop offset="0.890625" stop-color="rgb(1.176453%, 15.106201%, 15.1474%)" stop-opacity="1"/>
<stop offset="0.898438" stop-color="rgb(1.0849%, 14.907837%, 14.944458%)" stop-opacity="1"/>
<stop offset="0.90625" stop-color="rgb(0.993347%, 14.709473%, 14.743042%)" stop-opacity="1"/>
<stop offset="0.914063" stop-color="rgb(0.901794%, 14.509583%, 14.541626%)" stop-opacity="1"/>
<stop offset="0.921875" stop-color="rgb(0.810242%, 14.311218%, 14.338684%)" stop-opacity="1"/>
<stop offset="0.929688" stop-color="rgb(0.720215%, 14.112854%, 14.137268%)" stop-opacity="1"/>
<stop offset="0.9375" stop-color="rgb(0.628662%, 13.91449%, 13.935852%)" stop-opacity="1"/>
<stop offset="0.945312" stop-color="rgb(0.537109%, 13.7146%, 13.734436%)" stop-opacity="1"/>
<stop offset="0.953125" stop-color="rgb(0.445557%, 13.516235%, 13.531494%)" stop-opacity="1"/>
<stop offset="0.960938" stop-color="rgb(0.354004%, 13.317871%, 13.330078%)" stop-opacity="1"/>
<stop offset="0.96875" stop-color="rgb(0.262451%, 13.119507%, 13.128662%)" stop-opacity="1"/>
<stop offset="0.976562" stop-color="rgb(0.170898%, 12.921143%, 12.92572%)" stop-opacity="1"/>
<stop offset="0.984375" stop-color="rgb(0.0793457%, 12.721252%, 12.724304%)" stop-opacity="1"/>
<stop offset="1" stop-color="rgb(0.0167847%, 12.585449%, 12.585449%)" stop-opacity="1"/>
</linearGradient>
</defs>
<g clip-path="url(#clip-0)">
<path fill-rule="nonzero" fill="url(#linear-pattern-0)" d="M 0 0 L 0 3303.640625 L 2488.941406 3303.640625 L 2488.941406 0 Z M 0 0 "/>
</g>
</svg>
